<svg xmlns="http://www.w3.org/2000/svg" viewBox="0 0 64 64">
  <defs>
    <linearGradient id="g" x1="0" x2="1" y1="0" y2="1">
      <stop offset="0%" stop-color="#ffbf66"/>
      <stop offset="100%" stop-color="#f7931a"/>
    </linearGradient>
  </defs>
  <rect width="64" height="64" rx="14" fill="url(#g)"/>
  <g transform="translate(16,12)">
    <path d="M12 0h4v3h3a7 7 0 0 1 0 14h-3v4h3a7 7 0 0 1 0 14h-3v3h-4v-3H9v3H5v-3H2v-4h3V17H2v-4h3V0h4v3h3V0zm3 7h3a3 3 0 0 1 0 6h-3V7zm0 14h3a3 3 0 0 1 0 6h-3v-6z" fill="#1a1f2b"/>
  </g>
</svg>

